HIERARCHY
ROOT Hips
{
 OFFSET 0.000000 0.000000 0.000000
 CHANNELS 6 Xposition Yposition Zposition Yrotation Xrotation Zrotation
 JOINT Chest
 {
  OFFSET 0.000000 9.585900 0.002600
  CHANNELS 3 Yrotation Xrotation Zrotation
  JOINT Chest2
  {
   OFFSET 0.000000 9.601200 -0.005300
   CHANNELS 3 Yrotation Xrotation Zrotation
   JOINT Chest3
   {
    OFFSET 0.000000 9.561800 0.000000
    CHANNELS 3 Yrotation Xrotation Zrotation
    JOINT Chest4
    {
     OFFSET 0.000000 9.552100 0.000000
     CHANNELS 3 Yrotation Xrotation Zrotation
     JOINT Neck
     {
      OFFSET 0.000000 14.453000 0.000000
      CHANNELS 3 Yrotation Xrotation Zrotation
      JOINT Head
      {
       OFFSET 0.000000 8.936500 -0.011300
       CHANNELS 3 Yrotation Xrotation Zrotation
       End Site
       {
        OFFSET 0.000000 17.073600 -0.006000
       }
      }
     }
     JOINT RightCollar
     {
      OFFSET -2.921100 9.558500 0.000000
      CHANNELS 3 Yrotation Xrotation Zrotation
      JOINT RightShoulder
      {
       OFFSET -13.519700 0.000000 0.000000
       CHANNELS 3 Yrotation Xrotation Zrotation
       JOINT RightElbow
       {
        OFFSET 0.000000 -29.696600 0.000000
        CHANNELS 3 Yrotation Xrotation Zrotation
        JOINT RightWrist
        {
         OFFSET 0.000000 -24.004700 0.000000
         CHANNELS 3 Yrotation Xrotation Zrotation
         End Site
         {
          OFFSET 0.000000 -17.728500 0.000000
         }
        }
       }
      }
     }
     JOINT LeftCollar
     {
      OFFSET 2.921100 9.558500 0.000000
      CHANNELS 3 Yrotation Xrotation Zrotation
      JOINT LeftShoulder
      {
       OFFSET 13.519700 0.000000 0.000000
       CHANNELS 3 Yrotation Xrotation Zrotation
       JOINT LeftElbow
       {
        OFFSET 0.000000 -29.696600 0.000000
        CHANNELS 3 Yrotation Xrotation Zrotation
        JOINT LeftWrist
        {
         OFFSET 0.000000 -24.004700 0.000000
         CHANNELS 3 Yrotation Xrotation Zrotation
         End Site
         {
          OFFSET 0.000000 -17.728500 0.000000
         }
        }
       }
      }
     }
    }
   }
  }
 }
 JOINT RightHip
 {
  OFFSET -7.771700 -0.012900 -0.001300
  CHANNELS 3 Yrotation Xrotation Zrotation
  JOINT RightKnee
  {
   OFFSET 0.000000 -40.869800 0.001200
   CHANNELS 3 Yrotation Xrotation Zrotation
   JOINT RightAnkle
   {
    OFFSET 0.000000 -39.717900 0.002100
    CHANNELS 3 Yrotation Xrotation Zrotation
    JOINT RightToe
    {
     OFFSET 0.000000 -4.965400 11.033500
     CHANNELS 3 Yrotation Xrotation Zrotation
     End Site
     {
      OFFSET 0.000000 -1.423100 5.872300
     }
    }
   }
  }
 }
 JOINT LeftHip
 {
  OFFSET 7.771700 -0.012900 -0.001300
  CHANNELS 3 Yrotation Xrotation Zrotation
  JOINT LeftKnee
  {
   OFFSET 0.000000 -40.869800 0.001200
   CHANNELS 3 Yrotation Xrotation Zrotation
   JOINT LeftAnkle
   {
    OFFSET 0.000000 -39.717900 0.002100
    CHANNELS 3 Yrotation Xrotation Zrotation
    JOINT LeftToe
    {
     OFFSET 0.000000 -4.965400 11.033500
     CHANNELS 3 Yrotation Xrotation Zrotation
     End Site
     {
      OFFSET 0.000000 -1.423100 5.872300
     }
    }
   }
  }
 }
}
MOTION
Frames: 5
Frame Time: 0.008333
0.000000 85.388000 0.000000 0.000000 -5.767877 0.000000 0.000000 11.653817 0.000000 0.000000 -5.885947 0.000000 0.000000 -0.000000 0.000000 0.000000 -0.000000 0.000000 0.000000 12.528835 0.000000 0.000000 0.711642 0.000000 0.000000 -0.000000 0.000000 0.000000 0.000000 -90.000000 0.000000 -2.309062 0.000000 0.000000 2.309062 0.000000 0.000000 -0.000000 0.000000 0.000000 -0.000000 90.000000 0.000000 -2.309062 0.000000 0.000000 2.309062 0.000000 0.000000 8.520406 0.000000 0.000000 1.905762 0.000000 -0.000000 -4.658285 0.000000 0.000000 -0.000000 0.000000 0.000000 8.520406 0.000000 0.000000 1.905762 0.000000 -0.000000 -4.658285 0.000000 0.000000 -0.000000 0.000000
-0.766139 55.215220 -21.544167 177.836396 -15.602160 -1.879191 0.153955 15.204634 0.790399 0.008995 1.415381 0.086870 0.050928 2.377229 0.151074 0.262495 13.579962 0.868219 0.623710 19.678133 -1.019659 0.893877 -4.904574 -1.223709 -0.593662 0.697390 2.745731 3.803945 -2.051947 -11.149173 -88.488580 -76.912329 121.105926 -11.230741 -18.449571 3.070099 -6.056932 -1.432466 0.764492 2.000890 -12.189789 9.825575 60.395856 -56.107749 -102.826350 7.318398 -6.348186 -4.094781 0.283633 -59.376571 14.130475 -105.476602 88.558420 -109.384293 -11.783630 -22.666043 15.580949 -0.044610 -0.046777 -0.051380 9.795934 -56.239473 -4.513649 114.263723 76.675227 112.800760 -6.167203 -24.016854 0.014406 -0.001960 0.164141 -0.012518
-0.769102 55.216630 -21.544061 177.844197 -15.595957 -1.839790 0.191271 15.189868 0.772125 0.071942 1.406743 0.095217 -0.032914 2.390144 0.140186 0.339939 13.571869 0.876471 0.601362 19.668483 -1.005120 0.846097 -4.898204 -1.202902 -0.594799 0.689479 2.765649 3.811971 -2.017424 -11.166120 -88.393041 -76.931365 121.004873 -11.235235 -18.439214 3.097227 -6.033314 -1.428937 0.792361 2.110463 -12.126229 9.989300 60.687487 -56.113149 -103.219015 7.301580 -6.288329 -4.097384 0.257396 -59.373250 14.128554 -105.524187 88.550605 -109.472429 -11.812665 -22.660999 15.590737 -0.003027 -0.043051 -0.039284 9.834132 -56.233145 -4.557742 114.261159 76.685361 112.778547 -6.187061 -24.046718 0.013356 0.006388 0.196816 0.003783
-0.767290 55.218902 -21.545966 177.846212 -15.598800 -1.826312 0.296424 15.180166 0.802994 0.022941 1.413768 0.087546 0.039723 2.378562 0.147582 0.315072 13.577054 0.879346 0.572995 19.654956 -0.986973 0.801110 -4.891190 -1.185546 -0.598271 0.682510 2.782177 3.813319 -1.985324 -11.178666 -88.316863 -76.944859 120.939675 -11.239553 -18.424604 3.124199 -6.004812 -1.418653 0.829886 2.241198 -12.057496 10.153887 60.992976 -56.119747 -103.642887 7.284347 -6.214839 -4.102232 0.244779 -59.365812 14.153850 -105.124607 88.531005 -109.065772 -11.960434 -22.640381 15.609530 0.009419 -0.035453 -0.023998 9.837243 -56.225316 -4.549294 114.277623 76.695738 112.775441 -6.200505 -24.042440 0.014776 0.005503 0.193494 0.015268
-0.762917 55.221460 -21.548595 177.852361 -15.600811 -1.830971 0.349270 15.183943 0.831395 0.027031 1.412735 0.088004 0.046654 2.376778 0.148459 0.355686 13.571642 0.888548 0.521894 19.641997 -0.971744 0.784170 -4.912855 -1.166806 -0.609637 0.672825 2.795837 3.812200 -1.956302 -11.190220 -88.253925 -76.949185 120.897938 -11.243339 -18.410448 3.149122 -5.978038 -1.407465 0.874153 2.385427 -11.980606 10.322109 61.303711 -56.118597 -104.081156 7.270894 -6.135968 -4.113890 0.211327 -59.355007 14.174197 -105.118470 88.541998 -109.079641 -11.894192 -22.638237 15.597521 0.012254 -0.047671 -0.021924 9.797484 -56.219030 -4.485887 114.324181 76.723039 112.798207 -6.233060 -24.047888 0.011559 0.035539 0.199437 0.036276
